{"title":"Marvel's Agents of S.H.I.E.L.D S03E10 Maveth 1080P WEB-DL DD5 1","uid":12957204,"size":1818409259,"categoryP":"video","categoryS":"hd___tv_shows","magnet":"?xt=urn:btih:3f619b7be92d58b8008d7b5daabd8d26bc572f2c&amp;dn=Marvel%27s+Agents+of+S.H.I.E.L.D+S03E10+Maveth+1080P+WEB-DL+DD5+1+&amp;tr=udp%3A%2F%2Ftracker.leechers-paradise.org%3A6969&amp;tr=udp%3A%2F%2Fzer0day.ch%3A1337&amp;tr=udp%3A%2F%2Fopen.demonii.com%3A1337&amp;tr=udp%3A%2F%2Ftracker.coppersurfer.tk%3A6969&amp;tr=udp%3A%2F%2Fexodus.desync.com%3A6969","seeders":1,"leechers":0,"uploader":"jmanwf","files":2,"time":1449800301,"description":"S.H.I.E.L.D. and Hydra go head-to-head in a battle that will change Coulson's world forever. While Daisy and her team of Inhumans fight to keep Hydra at bay, Coulson and Fitz take the ultimate risk, in the epic winter finale.\r\n\r\nVideo\r\nID : 2\r\nFormat : AVC\r\nFormat/Info : Advanced Video Codec\r\nFormat profile :   \r\nFormat settings, CABAC : Yes\r\nFormat settings, ReFrames : 4 frames\r\nCodec ID : avc1\r\nCodec ID/Info : Advanced Video Coding\r\nDuration : 42mn 56s\r\nBit rate : 5 132 Kbps\r\nWidth : 1 920 pixels\r\nHeight : 1 080 pixels\r\nDisplay aspect ratio : 16:9\r\nFrame rate mode : Constant\r\nFrame rate : 23.976 fps\r\nColor space : YUV\r\nChroma subsampling : 4:2:0\r\nBit depth : 8 bits\r\nScan type : Progressive\r\nBits/(Pixel*Frame) : 0.103\r\nStream size : 1.54 GiB (91%)\r\nLanguage : English\r\nEncoded date : UTC 2015-12-10 04:48:24\r\nTagged date : UTC 2015-12-10 04:52:21\r\nColor range : Limited\r\nColor primaries : BT.709\r\nTransfer characteristics : BT.709\r\nMatrix coefficients : BT.709\r\n\r\nAudio #1\r\nID : 1\r\nFormat : AAC\r\nFormat/Info : Advanced Audio Codec\r\nFormat profile : LC\r\nCodec ID : 40\r\nDuration : 42mn 56s\r\nBit rate mode : Variable\r\nBit rate : 126 Kbps\r\nMaximum bit rate : 203 Kbps\r\nChannel(s) : 2 channels\r\nChannel positions : Front: L R\r\nSampling rate : 48.0 KHz\r\nCompression mode : Lossy\r\nStream size : 38.7 MiB (2%)\r\nLanguage : English\r\nEncoded date : UTC 2015-12-10 04:48:24\r\nTagged date : UTC 2015-12-10 04:52:21\r\n\r\nAudio #2\r\nID : 3\r\nFormat : AC-3\r\nFormat/Info : Audio Coding 3\r\nMode extension : CM (complete main)\r\nFormat settings, Endianness : Big\r\nCodec ID : ac-3\r\nDuration : 42mn 56s\r\nBit rate mode : Constant\r\nBit rate : 384 Kbps\r\nChannel(s) : 6 channels\r\nChannel positions : Front: L C R, Side: L R, LFE\r\nSampling rate : 48.0 KHz\r\nBit depth : 16 bits\r\nCompression mode : Lossy\r\nStream size : 118 MiB (7%)\r\nLanguage : English\r\nEncoded date : UTC 2015-12-10 04:48:24\r\nTagged date : UTC 2015-12-10 04:52:21\r\n\r\nText\r\nID : 4-CC1\r\nFormat : EIA-608\r\nMuxing mode : Final Cut\r\nCodec ID : c608\r\nDuration : 42mn 7s\r\nBit rate mode : Constant\r\nStream size : 0.00 Byte (0%)\r\nLanguage : English\r\nEncoded date : UTC 2015-12-10 04:48:24\r\nTagged date : UTC 2015-12-10 04:48:35\r\n\r\n\r\n \nhttps://itunes.apple.com/us/tv-season/marvels-agents-s.h.i.e.l.d./id1030602281","torrent":{"xt":"urn:btih:3f619b7be92d58b8008d7b5daabd8d26bc572f2c","amp;dn":"Marvel%27s+Agents+of+S.H.I.E.L.D+S03E10+Maveth+1080P+WEB-DL+DD5+1+","amp;tr":["udp%3A%2F%2Ftracker.leechers-paradise.org%3A6969","udp%3A%2F%2Fzer0day.ch%3A1337","udp%3A%2F%2Fopen.demonii.com%3A1337","udp%3A%2F%2Ftracker.coppersurfer.tk%3A6969","udp%3A%2F%2Fexodus.desync.com%3A6969"],"infoHash":"3f619b7be92d58b8008d7b5daabd8d26bc572f2c","infoHashBuffer":{"type":"Buffer","data":[63,97,155,123,233,45,88,184,0,141,123,93,170,189,141,38,188,87,47,44]},"announce":[],"urlList":[]}}